<svg width="14" height="20" viewBox="0 0 14 20" fill="none" xmlns="http://www.w3.org/2000/svg">
<path id="Shape" fill-rule="evenodd" clip-rule="evenodd" d="M5.38236 0C6.53735 0 7.68809 0 8.84308 0C8.77514 0.781316 8.70295 1.56688 8.63926 2.3482C9.98533 2.44586 11.2974 2.87898 12.4779 3.52017C11.9683 4.80255 11.4545 6.08493 10.9407 7.3673C9.94711 6.52229 8.63926 6.0552 7.33565 6.07219C7.00868 6.08068 6.66898 6.14437 6.39722 6.33121C6.21887 6.45435 6.08724 6.64543 6.04902 6.85775C6.0193 7.0276 6.02779 7.21868 6.12121 7.37155C6.22737 7.5414 6.4142 7.64331 6.60104 7.70701C6.98321 7.84289 7.3951 7.85138 7.79425 7.89384C8.73267 8.00849 9.67535 8.16985 10.5628 8.50531C11.2507 8.76858 11.9089 9.16348 12.3802 9.74098C12.8261 10.2718 13.0851 10.9427 13.1828 11.6306C13.2974 12.4246 13.2635 13.2484 13.0172 14.0212C12.8261 14.6412 12.4991 15.2187 12.0745 15.707C11.1955 16.7261 9.90465 17.3376 8.57981 17.4947C8.62227 18.3312 8.67323 19.1635 8.71994 20C7.62439 20 6.5331 20 5.4418 20C5.48427 19.172 5.53947 18.3439 5.57769 17.5159C4.6987 17.4862 3.82822 17.2909 3.00868 16.9809C2.21463 16.6794 1.45879 16.2803 0.753906 15.8132C1.27195 14.4798 1.79 13.1465 2.31229 11.8089C2.90253 12.3057 3.53098 12.7686 4.21887 13.121C4.95773 13.4989 5.77726 13.741 6.60953 13.7495C7.00444 13.7537 7.41208 13.7325 7.78575 13.5966C8.01505 13.5117 8.24011 13.3631 8.34202 13.1295C8.44817 12.8832 8.43968 12.5732 8.27832 12.3524C8.16367 12.2038 8.00231 12.1019 7.83246 12.0297C7.60316 11.9363 7.36537 11.8854 7.12333 11.8471C6.23161 11.7028 5.33565 11.5839 4.47365 11.3036C3.78151 11.0786 3.10635 10.7643 2.55433 10.2803C2.20614 9.97877 1.91739 9.60934 1.71357 9.19321C1.40783 8.57325 1.29318 7.87261 1.30168 7.18471C1.30168 6.41614 1.45879 5.63482 1.84096 4.95966C2.17217 4.35669 2.67747 3.86412 3.24648 3.4862C3.93437 3.03185 4.70295 2.72187 5.48427 2.47134C5.4503 1.64756 5.41633 0.823779 5.38236 0Z" fill="#F7B928"/>
</svg>
